<svg width="671" height="507" viewBox="0 0 671 507" fill="none" xmlns="http://www.w3.org/2000/svg">
<path opacity="0.5" d="M424.717 484.012C423.577 485.835 420.729 486.29 416.172 485.379C411.842 484.24 406.715 483.67 400.791 483.67C394.867 483.67 386.436 484.923 375.498 487.43C364.788 489.708 347.812 493.354 324.57 498.367C301.328 503.608 280.137 506.229 260.996 506.229C217.702 506.229 175.661 496.089 134.873 475.809C94.3132 455.301 61.8424 426.362 37.4609 388.992C13.0794 351.395 0.888672 307.872 0.888672 258.426C0.888672 208.979 13.0794 164.204 37.4609 124.1C73.0078 65.3105 126.556 27.0293 198.105 9.25586C220.892 3.55924 243.678 0.710938 266.465 0.710938C297.682 0.710938 334.71 5.95182 377.549 16.4336C390.537 19.6237 401.475 22.9277 410.361 26.3457C419.476 29.7637 425.059 31.4727 427.109 31.4727L437.363 28.7383H447.959C450.693 28.7383 452.061 30.6751 452.061 34.5488V140.848C452.061 143.126 450.01 144.266 445.908 144.266C441.807 144.266 439.414 143.81 438.73 142.898C438.047 141.759 437.363 140.506 436.68 139.139C435.996 137.544 435.199 135.949 434.287 134.354C433.604 132.758 432.806 131.277 431.895 129.91C431.211 128.543 430.755 127.518 430.527 126.834C396.348 58.2467 344.508 23.9531 275.01 23.9531C212.347 23.9531 163.356 43.8913 128.037 83.7676C92.7181 123.644 75.0586 176.508 75.0586 242.361C75.0586 307.986 94.4271 364.383 133.164 411.551C172.129 458.719 224.993 482.303 291.758 482.303C328.216 482.303 361.37 471.479 391.221 449.832C421.299 428.185 444.883 401.639 461.973 370.193C462.428 368.826 463.796 368.143 466.074 368.143H470.518C472.796 368.143 473.936 369.51 473.936 372.244C473.936 374.979 473.252 377.599 471.885 380.105L424.717 484.012ZM384.59 494.266C384.59 496.089 383.678 497 381.855 497H207.197C205.374 497 204.463 496.089 204.463 494.266V486.062C204.463 484.24 205.944 483.328 208.906 483.328C240.124 481.961 261.201 465.327 272.139 433.426L411.592 29.7637C411.82 29.3079 411.934 28.7383 411.934 28.0547L408.174 16.7754C408.174 15.6361 408.63 15.0664 409.541 15.0664H477.9C478.356 15.2943 478.926 15.5221 479.609 15.75C480.521 15.9779 481.204 16.6615 481.66 17.8008L626.24 423.514C629.43 429.666 631.937 435.249 633.76 440.262C635.811 445.275 638.089 449.832 640.596 453.934C646.064 463.276 655.065 470.454 667.598 475.467C678.079 480.708 687.65 483.328 696.309 483.328C698.132 483.328 699.043 484.354 699.043 486.404V494.266C699.043 496.089 698.132 497 696.309 497H487.129C485.306 497 484.395 496.089 484.395 494.266V486.062C484.395 484.24 488.61 483.1 497.041 482.645C505.472 482.189 512.422 481.733 517.891 481.277C549.564 477.859 565.4 467.15 565.4 449.148C565.4 447.781 565.173 446.186 564.717 444.363L513.105 298.758C512.878 298.302 512.422 297.277 511.738 295.682C509.004 287.934 504.219 284.061 497.383 284.061H376.045C369.209 284.061 363.854 287.82 359.98 295.34C359.297 296.935 358.955 297.846 358.955 298.074L307.686 448.123V451.199C307.686 457.124 310.762 462.479 316.914 467.264C330.814 477.973 349.499 483.328 372.969 483.328H381.855C383.678 483.328 384.59 484.24 384.59 486.062V494.266ZM485.762 246.121C489.863 246.121 491.914 244.412 491.914 240.994C491.914 239.171 491.458 237.12 490.547 234.842L439.619 94.7051C437.34 88.5527 435.632 85.4766 434.492 85.4766C433.353 85.4766 431.53 88.6667 429.023 95.0469L381.172 234.842C380.26 237.12 379.805 239.627 379.805 242.361C379.805 244.868 381.514 246.121 384.932 246.121H485.762Z" fill="#FF1D89" fill-opacity="0.04"/>
</svg>
